<?xml version="1.0" encoding="UTF-8" standalone="no"?>
<svg
   enable-background="new 0 0 128 128"
   id="Слой_1"
   version="1.1"
   viewBox="0 0 128 128"
   xml:space="preserve"
   sodipodi:docname="notepad_pencil_icon-icons.com_60562.svg"
   inkscape:version="1.4.2 (ebf0e94, 2025-05-08)"
   inkscape:export-filename="favicon.png"
   inkscape:export-xdpi="36"
   inkscape:export-ydpi="36"
   xmlns:inkscape="http://www.inkscape.org/namespaces/inkscape"
   xmlns:sodipodi="http://sodipodi.sourceforge.net/DTD/sodipodi-0.dtd"
   xmlns="http://www.w3.org/2000/svg"
   xmlns:svg="http://www.w3.org/2000/svg"><defs
     id="defs4" /><sodipodi:namedview
     id="namedview4"
     pagecolor="#ffffff"
     bordercolor="#000000"
     borderopacity="0.25"
     inkscape:showpageshadow="2"
     inkscape:pageopacity="0.0"
     inkscape:pagecheckerboard="0"
     inkscape:deskcolor="#d1d1d1"
     inkscape:zoom="4"
     inkscape:cx="33.75"
     inkscape:cy="52.125"
     inkscape:window-width="1920"
     inkscape:window-height="1111"
     inkscape:window-x="-9"
     inkscape:window-y="-9"
     inkscape:window-maximized="1"
     inkscape:current-layer="Слой_1" /><path
     d="M84,13H19v96h65c7.7,0,14-6.3,14-14V27C98,19.3,91.7,13,84,13z"
     fill="#212121"
     id="Notepad" /><g
     id="Pencil"
     transform="translate(2.8578143,1.6545241)"><ellipse
       cx="101.2"
       cy="22"
       fill="#ffd600"
       rx="4"
       ry="10"
       transform="matrix(0.408,-0.913,0.913,0.408,39.8351,105.4477)"
       id="ellipse1" /><polygon
       fill="#ffccbc"
       points="61.3,111.4 64.3,110.6 80.9,92 79.8,87.7 66.6,81.8 62.6,83.9 59.9,108.7 "
       id="polygon1" /><polygon
       fill="#263238"
       points="64.3,110.6 59,116.5 59.9,108.7 "
       id="polygon2" /><path
       d="m 80.9,92 c 0,0 -0.8,-2.5 -3.2,-3 -1.3,-0.3 -5.1,1.5 -7.3,0.5 -2.6,-1.2 -1.6,-4.7 -2.8,-5.8 -1.7,-1.5 -4.9,0.1 -4.9,0.1 l 29.5,-66 18.3,8.2 z"
       fill="#78909c"
       id="path2"
       style="fill:#ff6600" /></g><rect
     height="96"
     width="3"
     x="23"
     y="13"
     id="rect4" /><g
     id="g6"
     transform="matrix(1.6358851,0,0,1.4941047,11.551515,-41.057833)">
			<path
   style="fill:#ffffff"
   d="m 17.021,42.719 v 7.848 c 0,0.474 -0.087,0.873 -0.26,1.196 -0.173,0.323 -0.405,0.583 -0.697,0.779 -0.292,0.196 -0.627,0.333 -1.005,0.41 -0.378,0.077 -0.768,0.116 -1.169,0.116 -0.2,0 -0.436,-0.021 -0.704,-0.062 -0.268,-0.041 -0.547,-0.104 -0.834,-0.191 -0.287,-0.087 -0.563,-0.185 -0.827,-0.294 -0.264,-0.109 -0.487,-0.232 -0.67,-0.369 l 0.697,-1.107 c 0.091,0.063 0.221,0.13 0.39,0.198 0.169,0.068 0.354,0.132 0.554,0.191 0.2,0.059 0.41,0.111 0.629,0.157 0.219,0.046 0.424,0.068 0.615,0.068 0.483,0 0.868,-0.094 1.155,-0.28 0.287,-0.186 0.439,-0.504 0.458,-0.95 v -7.711 h 1.668 z"
   id="path3-0" />
			<path
   style="fill:#ffffff"
   d="m 25.184,50.238 c 0,0.364 -0.075,0.718 -0.226,1.06 -0.151,0.342 -0.362,0.643 -0.636,0.902 -0.274,0.259 -0.61,0.467 -1.012,0.622 -0.402,0.155 -0.856,0.232 -1.367,0.232 -0.219,0 -0.444,-0.012 -0.677,-0.034 -0.233,-0.022 -0.467,-0.062 -0.704,-0.116 -0.237,-0.055 -0.463,-0.13 -0.677,-0.226 -0.214,-0.096 -0.398,-0.212 -0.554,-0.349 l 0.287,-1.176 c 0.128,0.073 0.289,0.144 0.485,0.212 0.196,0.068 0.398,0.132 0.608,0.191 0.21,0.059 0.419,0.107 0.629,0.144 0.21,0.037 0.405,0.055 0.588,0.055 0.556,0 0.982,-0.13 1.278,-0.39 0.296,-0.26 0.444,-0.645 0.444,-1.155 0,-0.31 -0.104,-0.574 -0.314,-0.793 C 23.126,49.198 22.864,49 22.55,48.822 22.236,48.644 21.896,48.467 21.531,48.289 21.166,48.111 20.825,47.901 20.506,47.66 c -0.319,-0.241 -0.583,-0.526 -0.793,-0.854 -0.21,-0.328 -0.314,-0.738 -0.314,-1.23 0,-0.446 0.082,-0.843 0.246,-1.189 0.164,-0.346 0.385,-0.641 0.663,-0.882 0.278,-0.241 0.602,-0.426 0.971,-0.554 0.369,-0.128 0.759,-0.191 1.169,-0.191 0.419,0 0.843,0.039 1.271,0.116 0.428,0.077 0.774,0.203 1.039,0.376 -0.055,0.118 -0.118,0.248 -0.191,0.39 -0.073,0.142 -0.142,0.273 -0.205,0.396 -0.063,0.123 -0.118,0.226 -0.164,0.308 -0.046,0.082 -0.073,0.128 -0.082,0.137 C 24.061,44.456 24,44.42 23.931,44.374 23.862,44.328 23.765,44.283 23.637,44.237 23.509,44.191 23.341,44.16 23.131,44.141 c -0.21,-0.019 -0.479,-0.014 -0.807,0.014 -0.183,0.019 -0.355,0.07 -0.52,0.157 -0.165,0.087 -0.31,0.193 -0.438,0.321 -0.128,0.128 -0.228,0.271 -0.301,0.431 -0.073,0.16 -0.109,0.313 -0.109,0.458 0,0.364 0.104,0.658 0.314,0.882 0.21,0.224 0.47,0.419 0.779,0.588 0.309,0.169 0.647,0.333 1.012,0.492 0.365,0.159 0.704,0.354 1.019,0.581 0.315,0.227 0.576,0.513 0.786,0.854 0.21,0.341 0.318,0.781 0.318,1.319 z"
   id="path4" />
			<path
   style="fill:#ffffff"
   d="m 35.082,47.914 c 0,0.848 -0.107,1.595 -0.321,2.242 -0.214,0.647 -0.511,1.185 -0.889,1.613 -0.378,0.428 -0.82,0.752 -1.326,0.971 -0.506,0.219 -1.06,0.328 -1.661,0.328 -0.601,0 -1.155,-0.109 -1.661,-0.328 -0.506,-0.219 -0.948,-0.542 -1.326,-0.971 -0.378,-0.429 -0.675,-0.966 -0.889,-1.613 -0.214,-0.647 -0.321,-1.395 -0.321,-2.242 0,-0.847 0.107,-1.593 0.321,-2.235 0.214,-0.642 0.511,-1.178 0.889,-1.606 0.378,-0.428 0.82,-0.754 1.326,-0.978 0.506,-0.224 1.06,-0.335 1.661,-0.335 0.601,0 1.155,0.111 1.661,0.335 0.506,0.224 0.948,0.549 1.326,0.978 0.378,0.429 0.675,0.964 0.889,1.606 0.214,0.642 0.321,1.387 0.321,2.235 z m -4.238,3.815 c 0.337,0 0.658,-0.066 0.964,-0.198 0.306,-0.132 0.579,-0.349 0.82,-0.649 0.241,-0.3 0.431,-0.695 0.567,-1.183 0.136,-0.488 0.21,-1.082 0.219,-1.784 -0.009,-0.684 -0.08,-1.265 -0.212,-1.743 -0.132,-0.478 -0.314,-0.873 -0.547,-1.183 -0.233,-0.31 -0.497,-0.533 -0.793,-0.67 -0.296,-0.137 -0.608,-0.205 -0.937,-0.205 -0.337,0 -0.658,0.063 -0.964,0.191 -0.306,0.128 -0.579,0.344 -0.82,0.649 -0.241,0.305 -0.431,0.699 -0.567,1.183 -0.137,0.483 -0.21,1.075 -0.219,1.777 0.009,0.684 0.08,1.267 0.212,1.75 0.132,0.483 0.314,0.877 0.547,1.183 0.233,0.306 0.497,0.528 0.793,0.67 0.296,0.142 0.609,0.212 0.937,0.212 z"
   id="path5" />
			<path
   style="fill:#ffffff"
   d="M 44.68,42.924 V 53 H 43.012 L 39.061,46.055 V 53 H 37.393 V 42.924 h 1.668 l 3.951,6.945 v -6.945 z"
   id="path6" />
		</g><path
     style="fill:#ffffff;stroke-width:0.124936"
     d="m 65.010888,71.819527 c -0.381693,-0.154953 -0.822606,-0.716764 -0.822606,-1.048164 0,-0.772358 0.455136,-1.193139 1.486795,-1.374562 0.426957,-0.07508 0.72699,-0.215072 0.924714,-0.431449 0.286036,-0.313021 0.292747,-0.384222 0.29524,-3.131778 0.0014,-1.546311 0.05975,-3.183856 0.129654,-3.638991 0.149925,-0.976136 0.631291,-1.960627 1.317397,-2.694342 l 0.494032,-0.528313 -0.556463,-0.643092 c -0.681381,-0.787459 -1.118569,-1.714725 -1.268621,-2.690718 -0.06235,-0.40556 -0.11453,-1.998231 -0.115955,-3.53927 -0.0032,-3.475463 0.06888,-3.32926 -1.841576,-3.734786 -0.423296,-0.08985 -0.864034,-0.70293 -0.86473,-1.202863 -3.27e-4,-0.234239 0.146099,-0.483441 0.454809,-0.774034 0.441939,-0.416003 0.477762,-0.426654 1.221488,-0.363173 1.418013,0.121029 2.697996,0.966719 3.344869,2.209953 0.306761,0.589568 0.317205,0.701798 0.383521,4.121289 0.07634,3.936427 0.07411,3.926313 1.037559,4.702591 0.51388,0.414049 1.313983,0.69145 1.994339,0.69145 0.483639,0 1.092015,0.605929 1.092015,1.087624 0,0.84799 -0.462895,1.233366 -1.674028,1.393693 -0.847848,0.112237 -1.607307,0.580818 -2.024727,1.249246 l -0.357543,0.572547 -0.06438,3.454609 c -0.06364,3.414294 -0.06831,3.462391 -0.40084,4.121288 -0.423993,0.840139 -1.147076,1.525826 -2.003685,1.900057 -0.740455,0.323487 -1.764849,0.460239 -2.181266,0.291188 z"
     id="path10" /><path
     style="fill:#ffffff;stroke-width:0.124936"
     d="m 45.065731,71.768139 c -1.204919,-0.373534 -2.033652,-1.026964 -2.608258,-2.05653 l -0.35093,-0.628791 -0.06566,-3.515216 -0.06566,-3.515217 -0.357545,-0.572547 c -0.41743,-0.668428 -1.176889,-1.13701 -2.024737,-1.249246 -1.211133,-0.160327 -1.674028,-0.545703 -1.674028,-1.393693 0,-0.481695 0.608376,-1.087624 1.092015,-1.087624 0.680357,0 1.480459,-0.277401 1.99434,-0.69145 0.964374,-0.777026 0.961905,-0.76583 1.036977,-4.702591 0.0653,-3.423962 0.07525,-3.53095 0.383242,-4.121289 0.649106,-1.24413 1.928112,-2.088952 3.34573,-2.209953 0.743726,-0.06349 0.779549,-0.05283 1.221487,0.363173 0.30871,0.290593 0.455138,0.539795 0.454811,0.774034 -6.97e-4,0.499933 -0.441436,1.113012 -0.864732,1.202863 -1.081086,0.229478 -1.333883,0.32845 -1.574539,0.616438 -0.249237,0.298259 -0.264596,0.477621 -0.267037,3.118348 -0.0014,1.541039 -0.0536,3.13371 -0.115955,3.53927 -0.150052,0.975993 -0.587241,1.903259 -1.268622,2.690718 l -0.556463,0.643092 0.51944,0.555485 c 0.6917,0.739697 1.137207,1.659419 1.292003,2.667264 0.06989,0.455082 0.128229,2.092586 0.12964,3.638897 0.0025,2.747556 0.0093,2.818757 0.29524,3.131778 0.197724,0.216377 0.497757,0.356365 0.924714,0.431449 0.767627,0.134992 1.200067,0.385867 1.363772,0.791177 0.206677,0.511699 0.139545,0.873648 -0.235275,1.268525 -0.424336,0.447045 -1.201285,0.566674 -2.023972,0.311636 z"
     id="path11" /><path
     style="fill:#ffffff;stroke-width:0.124936"
     d="m 54.879079,56.041378 c -0.547848,-0.27216 -0.92839,-0.780916 -1.05344,-1.408371 -0.110946,-0.556716 0.355614,-1.452825 0.949181,-1.823044 0.593048,-0.369894 1.494606,-0.369546 2.086643,8.04e-4 0.598851,0.374613 1.053236,1.231608 0.947446,1.786934 -0.125835,0.660502 -0.559352,1.217373 -1.141461,1.466222 -0.673803,0.28805 -1.175894,0.281721 -1.788369,-0.02255 z"
     id="path12" /><path
     style="fill:#ffffff;stroke-width:0.124936"
     d="m 55.35177,67.87832 c -0.780317,-0.319682 -0.821343,-0.476076 -0.821343,-3.131093 0,-2.378535 0.0032,-2.405784 0.310839,-2.695423 0.587411,-0.552937 1.395863,-0.543344 1.953636,0.02318 0.306802,0.311618 0.310954,0.347594 0.310954,2.69545 0,2.645614 -0.04074,2.79487 -0.849708,3.113041 -0.504716,0.198509 -0.405871,0.199072 -0.904378,-0.0052 z"
     id="path13" /><path
     style="fill:#225500;stroke-width:0.150411"
     d="M 26.021152,60.991774 V 13.010576 h 28.960099 c 19.670563,0 29.425664,0.05191 30.411493,0.16184 3.668665,0.40908 6.788022,2.061074 9.170245,4.856509 0.671946,0.788499 0.753046,0.949167 0.57828,1.145625 -0.111801,0.125678 -0.369663,0.634616 -0.573029,1.130973 -0.203366,0.496357 -6.850697,15.387074 -14.771849,33.090482 l -14.40209,32.188014 -1.257085,11.431257 c -0.691397,6.287194 -1.258934,11.549704 -1.261193,11.694474 -0.0039,0.24923 -0.983345,0.26322 -18.42949,0.26322 H 26.021152 Z m 21.161537,10.464513 c 0.384188,-0.446645 0.435569,-0.840636 0.174348,-1.336915 -0.225333,-0.428096 -0.352342,-0.505065 -1.286569,-0.779666 -1.204138,-0.353941 -1.247417,-0.47349 -1.250886,-3.45543 -0.0046,-3.963241 -0.327525,-5.347431 -1.512285,-6.482505 l -0.426492,-0.408605 0.518928,-0.60625 c 1.178353,-1.376641 1.415183,-2.435645 1.419804,-6.348748 0.0035,-2.997381 0.04219,-3.101512 1.285266,-3.462884 1.376922,-0.400282 1.784777,-1.271709 1.020378,-2.180148 -0.390761,-0.464394 -0.436591,-0.478505 -1.322896,-0.407362 -1.431429,0.114902 -2.648054,0.848456 -3.326093,2.005442 -0.389069,0.663896 -0.400193,0.756574 -0.510858,4.256131 -0.06222,1.967602 -0.183509,3.70738 -0.26953,3.86617 -0.425573,0.785591 -1.753552,1.567209 -2.662703,1.567209 -0.572212,0 -1.129458,0.555886 -1.129458,1.1267 0,0.276771 0.04204,0.612787 0.09343,0.746703 0.118706,0.309342 0.716338,0.612929 1.47889,0.75125 0.925472,0.167874 1.64558,0.607072 2.085633,1.272037 l 0.403149,0.609199 v 3.394948 c 0,3.651536 0.01258,3.721959 0.865626,4.844185 1.076413,1.416081 3.521868,1.993992 4.352316,1.028539 z m 20.288011,-0.0098 c 0.759399,-0.37154 1.42309,-1.036687 1.877113,-1.88123 0.143792,-0.267471 0.229876,-1.397005 0.298192,-3.912605 0.05819,-2.142596 0.162679,-3.661087 0.2651,-3.852463 0.09298,-0.173737 0.407652,-0.525374 0.699269,-0.781418 0.48002,-0.421463 0.821965,-0.560649 2.056858,-0.837227 1.101695,-0.246746 1.48401,-1.450628 0.680235,-2.142007 -0.228124,-0.196223 -0.555434,-0.356771 -0.727357,-0.356771 -0.984835,0 -2.405859,-0.861425 -2.700988,-1.637339 -0.08226,-0.216268 -0.200679,-1.94997 -0.263151,-3.852673 -0.1011,-3.07921 -0.148015,-3.525589 -0.426821,-4.061104 -0.632395,-1.214675 -1.941695,-2.050046 -3.375665,-2.153769 -0.828701,-0.05994 -0.895156,-0.0383 -1.33801,0.435777 -0.379178,0.405911 -0.449622,0.584402 -0.378091,0.958012 0.09846,0.514251 0.715316,1.136008 1.127054,1.136008 0.545664,0 1.180457,0.325833 1.347027,0.691415 0.10178,0.223383 0.172227,1.241439 0.173817,2.511902 0.005,4.017774 0.26153,5.214637 1.425351,6.650725 l 0.489285,0.603749 -0.496933,0.574866 c -1.129425,1.306552 -1.408414,2.656772 -1.4163,6.854442 -0.0047,2.507218 -0.04106,2.590418 -1.29052,2.953644 -0.885399,0.257393 -1.22687,0.562491 -1.356833,1.212303 -0.07294,0.364677 -0.0016,0.543731 0.378618,0.950792 0.449419,0.481104 0.502664,0.497976 1.308932,0.414762 0.462251,-0.04771 1.20197,-0.263615 1.643818,-0.479791 z M 56.542994,67.841512 c 0.233555,-0.120778 0.466166,-0.374597 0.516915,-0.564043 0.05075,-0.189447 0.0932,-1.379722 0.09433,-2.645057 0.002,-2.243368 -0.0071,-2.309796 -0.367139,-2.6698 -0.507201,-0.507202 -1.393143,-0.50736 -1.94022,-3.46e-4 -0.396068,0.367063 -0.397991,0.37968 -0.397991,2.609753 0,1.232498 0.07126,2.445311 0.158347,2.69514 0.257705,0.739255 1.121347,0.995503 1.935763,0.574353 z M 56.84619,56.054183 c 0.552764,-0.29645 1.062153,-1.086812 1.062153,-1.648025 0,-0.481331 -0.3691,-1.14933 -0.839516,-1.519359 -0.870612,-0.684824 -2.181278,-0.525495 -2.845972,0.345966 -0.542576,0.711353 -0.613501,1.282259 -0.248242,1.998224 0.522491,1.024167 1.809109,1.393001 2.871577,0.823194 z M 37.15933,37.84925 c 0.459253,-0.176499 1.048067,-0.541046 1.308475,-0.810107 0.941359,-0.972637 0.939951,-0.960639 0.939951,-8.004935 v -6.39731 h -1.428908 -1.428907 v 6.02392 c 0,6.849101 0.02265,6.705591 -1.127669,7.144903 -1.073144,0.409836 -2.97352,0.170762 -4.762859,-0.599187 -0.191015,-0.08219 -0.395965,0.107169 -0.867485,0.801515 l -0.617381,0.909132 0.566663,0.284598 c 1.54305,0.774971 3.021145,1.074988 5.003796,1.015644 1.162868,-0.0348 1.799501,-0.131889 2.414324,-0.368173 z m 12.74796,0.0109 c 1.764254,-0.68531 2.88707,-2.162818 2.88707,-3.799083 0,-2.071699 -0.89172,-3.100461 -3.80282,-4.387252 -0.762503,-0.337049 -1.680785,-0.813964 -2.040626,-1.05981 -1.457076,-0.995488 -1.31232,-2.516569 0.320644,-3.369304 0.677561,-0.353823 2.56244,-0.345531 3.251879,0.01431 0.420874,0.219665 0.533406,0.230911 0.634063,0.06337 0.06731,-0.112031 0.328056,-0.557151 0.579441,-0.989156 l 0.457065,-0.785462 -0.431808,-0.223297 c -1.127632,-0.583121 -3.974403,-0.699916 -5.508738,-0.226009 -1.359442,0.41989 -2.494981,1.492034 -2.845643,2.686779 -0.286508,0.976166 -0.295809,1.308339 -0.06265,2.23747 0.282854,1.127182 1.488595,2.221042 3.518607,3.19212 2.696321,1.289811 3.253267,1.769859 3.253267,2.804085 0,0.779265 -0.306084,1.362844 -0.912645,1.740045 -0.798112,0.496323 -2.801894,0.464346 -4.420268,-0.07054 -0.641586,-0.21205 -1.189554,-0.34185 -1.217705,-0.288447 -0.175481,0.332895 -0.420342,1.552654 -0.349006,1.738552 0.385898,1.005634 4.747532,1.476122 6.689875,0.721635 z m 14.087452,0.188953 c 2.406028,-0.62669 4.114466,-2.433648 4.759371,-5.033828 0.112849,-0.454994 0.20518,-1.571798 0.20518,-2.481786 0,-2.589599 -0.55157,-4.236218 -1.921497,-5.736307 -1.309277,-1.433679 -3.2008,-2.109078 -5.519582,-1.970858 -2.809874,0.167493 -4.851901,1.671752 -5.838722,4.301094 -0.503398,1.341278 -0.641709,4.410909 -0.265612,5.894889 0.85436,3.371088 3.163545,5.217805 6.561569,5.247464 0.623748,0.0054 1.532429,-0.09386 2.019293,-0.220668 z m 11.547296,-4.918655 0.03963,-4.998811 3.085671,4.961208 3.08567,4.961208 1.464271,0.04305 1.46427,0.04305 V 30.538936 22.93772 h -1.426907 -1.426906 l -0.0396,5.038255 -0.0396,5.038253 -3.135547,-5.038253 -3.135546,-5.038255 h -1.414395 -1.414394 v 7.59577 7.59577 h 1.426879 1.42688 z"
     id="path8" /><path
     style="fill:#225500;stroke-width:0.150411"
     d="m 70.63575,108.49417 c 0.257889,-0.27438 3.33756,-3.72131 6.843714,-7.65984 l 6.374825,-7.160977 6.994125,-15.613486 6.994124,-15.613484 0.04078,16.758008 c 0.02735,11.239446 -0.0117,17.104728 -0.118565,17.810885 -0.247123,1.632916 -1.065336,3.826074 -1.96745,5.273604 -1.908297,3.06204 -5.010939,5.3256 -8.574776,6.2558 -1.20499,0.31451 -1.622055,0.33222 -9.159069,0.38894 l -7.896592,0.0594 z"
     id="path9" /><path
     style="fill:#225500;stroke-width:0.150411"
     d="m 60.87866,35.968477 c -1.99421,-0.744045 -2.920887,-2.702707 -2.783521,-5.88336 0.05319,-1.231565 0.159365,-1.88565 0.41326,-2.545842 1.094916,-2.847069 4.458644,-3.512849 6.383943,-1.263569 1.622708,1.895769 1.622708,6.619799 0,8.515568 -0.30175,0.352527 -0.824125,0.781502 -1.160834,0.953279 -0.778125,0.396969 -2.109053,0.501436 -2.852848,0.223924 z"
     id="path14" /></svg>
